  <svg
          width="22"
          height="22"
          viewBox="0 0 24 24"
          fill="none"
          xmlns="http://www.w3.org/2000/svg"
        >
          <g clipPath="url(#clip0_296_520)">
            <path
              d="M10.5342 5.84551C7.9186 5.84551 5.29829 5.84551 2.68267 5.84551C2.2561 5.84551 2.23267 5.87363 2.23267 6.29551C2.23267 7.05957 2.23267 7.82832 2.23267 8.59238C2.23267 8.8127 2.19986 9.02363 1.97017 9.12676C1.72642 9.23457 1.45923 9.29551 1.24361 9.10332C1.13111 9.00019 1.02329 8.81738 1.02329 8.66738C1.00923 6.96582 0.976418 5.25957 1.02798 3.55801C1.06548 2.34395 2.07329 1.27988 3.2686 1.0502C3.44204 1.01738 3.62486 0.998633 3.80298 0.998633C8.31236 0.993945 12.8217 0.993945 17.3311 0.998633C18.8311 0.998633 20.092 2.27363 20.0967 3.76895C20.0967 4.2377 20.1061 4.70645 20.092 5.1752C20.0874 5.37207 20.1483 5.44238 20.3545 5.46113C21.7186 5.56426 22.7311 6.43145 23.0217 7.73457C23.0686 7.94082 23.092 8.15176 23.092 8.3627C23.0967 11.3111 23.0967 14.2549 23.092 17.2033C23.092 17.733 22.9655 18.2439 22.6889 18.6986C22.2249 19.4627 21.517 19.8752 20.6452 19.9643C19.9186 20.0346 19.1827 20.0533 18.4514 20.0627C17.4295 20.0768 16.403 20.0721 15.3811 20.0627C15.1186 20.058 14.8561 19.9971 14.5936 19.9643C14.3967 19.9361 14.2889 19.8096 14.2514 19.6314C14.2092 19.4346 14.1999 19.2096 14.3967 19.1064C14.6077 18.9939 14.8561 18.8908 15.0905 18.8861C16.7639 18.8674 18.4327 18.8768 20.1061 18.8768C21.1936 18.8768 21.8733 18.1971 21.8733 17.1002C21.8733 15.1314 21.8733 13.1627 21.8733 11.1893C21.8733 10.7955 21.803 10.7111 21.4233 10.6924C21.1045 10.6783 20.7858 10.6783 20.467 10.6924C20.167 10.7018 20.092 10.7955 20.092 11.1049C20.092 11.6674 20.0967 12.2299 20.092 12.7924C20.078 13.6596 19.778 14.4096 19.0889 14.9439C18.7983 15.1689 18.428 15.3471 18.0717 15.4221C17.4952 15.5393 16.8999 15.5768 16.3092 15.6096C15.9858 15.6236 15.6577 15.5533 15.3342 15.5299C15.2358 15.5205 15.128 15.5533 15.0342 15.5299C14.7389 15.4502 14.5795 15.2299 14.6124 14.9721C14.6499 14.6486 14.8702 14.433 15.1842 14.4283C15.7233 14.4189 16.2624 14.4283 16.8014 14.4236C17.0358 14.4189 17.2702 14.4096 17.4999 14.3814C18.2827 14.2783 18.8733 13.608 18.8733 12.8205C18.8733 10.6455 18.8733 8.4752 18.8733 6.3002C18.8733 5.92988 18.8124 5.86895 18.4327 5.86895C16.5483 5.86895 14.6686 5.86895 12.7842 5.86895C12.0342 5.84551 11.2842 5.84551 10.5342 5.84551ZM10.5483 4.32207C13.0561 4.32207 15.5639 4.32207 18.0717 4.32207C18.1514 4.32207 18.2311 4.33145 18.3061 4.31738C18.3577 4.30801 18.428 4.26582 18.442 4.22363C18.5686 3.84395 18.3577 3.1877 18.0577 2.90645C17.7249 2.59707 17.3217 2.56426 16.9045 2.56426C12.6389 2.56426 8.37329 2.56426 4.10767 2.56426C3.92017 2.56426 3.72329 2.55488 3.55454 2.61113C2.92173 2.83613 2.61704 3.28613 2.60767 3.96582C2.60298 4.30801 2.61236 4.31738 2.95454 4.31738C5.49048 4.32207 8.02173 4.32207 10.5483 4.32207ZM20.5139 8.11426C20.5139 8.38145 20.5186 8.64395 20.5139 8.91113C20.5092 9.05176 20.5702 9.11269 20.7061 9.10801C21.5124 9.09395 21.4374 9.24863 21.442 8.40488C21.442 8.38144 21.4374 8.35801 21.4374 8.33457C21.428 7.83301 21.2311 7.44394 20.7764 7.20488C20.5795 7.10176 20.5092 7.14395 20.5092 7.36426C20.5092 7.6127 20.5139 7.86113 20.5139 8.11426Z"
              fill="#000"
            />
            <path
              d="M1.04199 12.1031C1.05605 11.925 1.05137 11.7422 1.08418 11.5688C1.16856 11.1281 1.42168 10.8094 1.84356 10.6594C2.48574 10.4297 2.89356 10.0031 3.11387 9.35156C3.32481 8.72813 3.75137 8.44688 4.41231 8.44688C6.43731 8.44219 8.45762 8.44219 10.4826 8.44688C11.1529 8.44688 11.5982 8.75156 11.8092 9.38906C12.0107 9.99844 12.3904 10.3969 12.9904 10.6219C13.5811 10.8422 13.8764 11.2969 13.8529 11.9344C13.8107 13.0641 13.7404 14.1938 13.6748 15.3234C13.6326 16.0641 13.5998 16.8047 13.5201 17.5406C13.3326 19.3547 12.5826 20.8641 11.0404 21.9094C10.3842 22.3547 9.65293 22.6828 8.87481 22.8469C8.30293 22.9641 7.71699 23.0719 7.11699 22.9781C6.75137 22.9219 6.37637 22.9172 6.01543 22.8375C5.19512 22.6641 4.46387 22.2938 3.78418 21.8016C2.50918 20.8781 1.78731 19.6078 1.48262 18.0937C1.36074 17.4797 1.33262 16.8422 1.28574 16.2141C1.21543 15.2953 1.15449 14.3812 1.10762 13.4625C1.08418 13.0125 1.10293 12.5578 1.10293 12.1078C1.08418 12.1031 1.06543 12.1031 1.04199 12.1031ZM7.42168 21.4734C7.74512 21.4313 8.07324 21.4125 8.39199 21.3422C10.2295 20.9578 11.6592 19.4391 11.8842 17.6063C11.9686 16.9359 11.9826 16.2563 12.0295 15.5766C12.0529 15.1969 12.0811 14.8125 12.0998 14.4328C12.142 13.6922 12.1842 12.9516 12.2076 12.2156C12.2123 12.1313 12.1139 11.9953 12.0295 11.9625C11.2842 11.6484 10.7686 11.1 10.4592 10.3688C10.342 10.0969 10.192 10.0172 9.92012 10.0172C8.36387 10.0266 6.81231 10.0219 5.25606 10.0219C5.12949 10.0219 5.00293 10.0219 4.88106 9.99844C4.69356 9.96094 4.59043 10.0359 4.52012 10.2094C4.19668 11.0344 3.64356 11.6391 2.82793 11.9953C2.75762 12.0234 2.68262 12.1266 2.67793 12.1969C2.66856 12.4219 2.69668 12.6469 2.71074 12.8719C2.77168 13.8516 2.81856 14.8313 2.88887 15.8109C2.93574 16.4766 2.96855 17.1516 3.08105 17.8078C3.4373 19.8844 5.31699 21.4406 7.42168 21.4734ZM5.27481 13.2563L5.89355 13.7391L5.58418 14.5734L5.27481 14.6859L5.10137 13.7391L5.27481 13.2563Z"
              fill="#000"
            />
            <path
              d="M15.6155 8.82142C16.0421 8.82142 16.4734 8.81673 16.8999 8.82142C17.2984 8.82611 17.5374 9.08392 17.514 9.48236C17.4999 9.70736 17.4202 9.8808 17.1624 9.89017C16.6046 9.90892 16.0468 9.92767 15.489 9.94173C15.1468 9.94642 14.8046 9.94173 14.4624 9.93705C14.3546 9.93705 14.2468 9.93705 14.1437 9.91361C13.7827 9.82455 13.6843 9.68392 13.7171 9.34173C13.7452 9.05111 13.9702 8.83548 14.2843 8.82611C14.7249 8.81673 15.1702 8.82142 15.6155 8.82142Z"
              fill="#000"
            />
            <path
              d="M17.3733 11.4702C17.3733 11.7561 17.1812 12.0046 16.9608 12.0046C16.4358 12.0092 16.164 11.8264 16.1546 11.4655C16.1499 11.1655 16.464 10.8514 16.778 10.8467C17.1155 10.8421 17.3733 11.1139 17.3733 11.4702Z"
              fill="#000"
            />
            <path
              d="M18.6482 16.6592C18.9904 16.6592 19.2529 16.9264 19.2482 17.2733C19.2435 17.5499 19.042 17.7983 18.817 17.7983C18.3295 17.803 18.0389 17.6061 18.0342 17.2546C18.0248 16.9217 18.2967 16.6546 18.6482 16.6592Z"
              fill="#000"
            />
            <path
              d="M16.792 16.6593C17.0639 16.664 17.3076 16.8562 17.3639 17.1187C17.4201 17.3812 17.2889 17.7562 17.0592 17.7749C16.8108 17.7937 16.5201 17.7187 16.2998 17.5968C16.1264 17.4983 16.117 17.2546 16.2061 17.0437C16.3092 16.8046 16.5295 16.6546 16.792 16.6593Z"
              fill="#000"
            />
            <path
              d="M10.5483 4.32161C8.017 4.32161 5.48575 4.32161 2.9545 4.32161C2.61232 4.32161 2.60294 4.31224 2.60763 3.97005C2.617 3.29036 2.917 2.84036 3.5545 2.61536C3.72325 2.55443 3.92482 2.56849 4.10763 2.56849C8.37325 2.5638 12.6389 2.56849 16.9045 2.56849C17.3217 2.56849 17.7248 2.6013 18.0576 2.91068C18.3576 3.19193 18.5686 3.84818 18.442 4.22786C18.4279 4.27005 18.3576 4.31224 18.3061 4.32161C18.2311 4.34036 18.1514 4.3263 18.0717 4.3263C15.5639 4.32161 13.0561 4.32161 10.5483 4.32161Z"
              fill="#000"
            />
            <path
              d="M20.5139 8.11425C20.5139 7.86581 20.5092 7.61737 20.5139 7.36425C20.5186 7.14394 20.5889 7.10175 20.7811 7.20487C21.2358 7.44393 21.4327 7.833 21.4421 8.33456C21.4421 8.358 21.4467 8.38143 21.4467 8.40487C21.4421 9.24393 21.5124 9.08925 20.7108 9.108C20.5749 9.11268 20.5139 9.05175 20.5186 8.91112C20.5186 8.64394 20.5139 8.37675 20.5139 8.11425Z"
              fill="#000"
            />
            <path
              d="M6.04363 16.6072C6.48894 16.5885 6.77488 16.8182 6.98582 17.1838C7.05144 17.301 7.14988 17.4229 7.26238 17.4838C7.44988 17.5869 7.68425 17.5072 7.80144 17.3432C7.94206 17.1463 7.95144 16.8979 7.778 16.7432C7.65144 16.6307 7.478 16.5463 7.31394 16.4994C7.05144 16.4244 6.77019 16.4244 6.51707 16.3307C5.95925 16.1197 5.49988 15.7729 5.21863 15.2244C4.60925 14.0432 5.04519 12.5666 6.20769 11.9197C6.36238 11.8354 6.44675 11.7463 6.46082 11.5494C6.48894 11.0994 6.88738 10.7338 7.32331 10.7057C7.88581 10.6682 8.31707 10.9307 8.40613 11.4182C8.45769 11.6994 8.57488 11.8588 8.82331 11.9901C9.25456 12.2197 9.57332 12.5854 9.75144 13.0401C9.8405 13.2604 9.86863 13.5276 9.85925 13.7666C9.8405 14.1182 9.36707 14.4885 9.00613 14.4651C8.82332 14.4557 8.6405 14.4369 8.46238 14.3947C8.17644 14.3291 7.99831 14.1416 7.87175 13.8744C7.74988 13.626 7.5155 13.5041 7.35144 13.5651C7.11238 13.6541 6.93425 13.9307 6.97175 14.151C7.01863 14.4041 7.19675 14.5401 7.49675 14.5494C8.8655 14.5963 9.98581 15.7401 9.95769 17.0854C9.93894 17.8869 9.63894 18.5947 8.95457 19.0213C8.60769 19.2416 8.453 19.4713 8.36394 19.8416C8.26081 20.2447 7.8155 20.4604 7.38894 20.4041C7.0655 20.3619 6.74675 20.3291 6.58738 19.9869C6.52644 19.8557 6.46082 19.7104 6.45144 19.5697C6.44207 19.3916 6.36238 19.3119 6.21238 19.2369C5.7155 19.0026 5.3405 18.6322 5.09207 18.1447C4.703 17.3807 5.17644 16.6072 6.04363 16.6072Z"
              fill="#000"
            />
          </g>
          <defs>
            <clipPath id="clip0_296_520">
              <rect
                width="24"
                height="24"
                fill="white"
                transform="translate(0 -0.00488281)"
              />
            </clipPath>
          </defs>
        </svg>