	<svg
						  xmlns="http://www.w3.org/2000/svg"
						  width="22"
						  height="22"
						  viewBox="0 0 24 24"
						  fill="white"
						>
						  <g clipPath="url(#clip0_296_508)">
							<path
							  d="M11.9062 0.00488281C12 0.00488281 12.0938 0.00488281 12.1875 0.00488281C12.2438 0.0283112 12.3 0.0611103 12.3609 0.065796C13.1156 0.112653 13.7859 0.389107 14.3859 0.838932C16.9172 2.71789 19.4484 4.60621 21.8109 6.70071C22.4438 7.26299 23.0156 7.90024 23.5875 8.52812C23.7187 8.67338 23.8125 8.89829 23.8266 9.09509C23.8828 9.96662 23.9063 10.8382 23.9438 11.7144C23.9484 11.794 23.9812 11.8737 24 11.958C24 12.286 24 12.614 24 12.942C23.9812 13.0311 23.9484 13.1201 23.9438 13.2091C23.9063 14.0572 23.9109 14.91 23.8219 15.7534C23.7047 16.892 23.5359 18.0213 23.3625 19.1552C23.2453 19.9049 23.0297 20.6312 22.6313 21.2872C21.9938 22.3274 21.0281 22.8991 19.8891 23.2271C18.6469 23.5879 17.3578 23.6769 16.0781 23.78C14.9578 23.869 13.8375 23.8878 12.7125 23.944C12.6469 23.9487 12.5812 23.9815 12.5156 24.0002C12.1734 24.0002 11.8266 24.0002 11.4844 24.0002C11.4188 23.9815 11.3531 23.9487 11.2875 23.944C9.88594 23.8596 8.48438 23.794 7.0875 23.6956C6.11719 23.6254 5.14687 23.5035 4.20937 23.2318C2.79375 22.8147 1.6875 22.0182 1.14844 20.6031C0.904688 19.9612 0.740626 19.2771 0.618751 18.5976C0.431251 17.5574 0.285938 16.5031 0.173438 15.4535C0.0937506 14.7132 0.0937506 13.9588 0.0562506 13.2138C0.0515631 13.1248 0.01875 13.0357 0 12.9467C0 12.6656 0 12.3844 0 12.1033C0.01875 12.0377 0.0515631 11.9721 0.0562506 11.9065C0.0937506 11.2083 0.126562 10.5055 0.164062 9.80731C0.192188 9.21223 0.309375 8.64995 0.773438 8.21887C1.54219 7.50665 2.25469 6.73351 3.06563 6.0822C5.27813 4.30165 7.52813 2.56795 9.76875 0.82019C10.2375 0.454707 10.7719 0.22511 11.3625 0.126711C11.5453 0.0798539 11.7281 0.0423682 11.9062 0.00488281ZM16.95 18.696C16.95 19.5395 16.95 20.3829 16.95 21.2263C16.95 21.7511 16.9547 21.7839 17.4516 21.7136C18.1734 21.6058 18.9 21.484 19.6031 21.2966C20.5641 21.0389 21.1313 20.3688 21.3516 19.4083C21.8297 17.295 22.0078 15.1443 22.0453 12.9842C22.0641 11.9487 21.9891 10.9131 21.9703 9.87291C21.9656 9.61989 21.9094 9.4184 21.7219 9.24972C21.5578 9.10446 21.4219 8.93109 21.2578 8.78583C20.3672 8.0127 19.5 7.21145 18.5766 6.48048C16.8141 5.08884 15.0234 3.72999 13.2328 2.36646C12.4828 1.7995 11.6203 1.80418 10.8703 2.3852C8.76563 4.00645 6.66563 5.62769 4.59375 7.28642C3.77344 7.94241 3.03281 8.70149 2.26406 9.4184C2.17969 9.49806 2.10937 9.62926 2.1 9.74171C2.03906 10.5102 1.97344 11.2786 1.95937 12.0517C1.93594 13.4153 1.9875 14.7835 2.18437 16.133C2.34375 17.2247 2.52656 18.3165 2.75625 19.3989C2.9625 20.3641 3.55781 21.0436 4.52812 21.3013C5.24062 21.4887 5.97656 21.5965 6.70312 21.7183C7.05 21.7745 7.05469 21.7464 7.05469 21.395C7.05469 19.6472 7.05469 17.8948 7.05469 16.147C7.05469 16.0205 7.05 15.894 7.06406 15.7722C7.27031 14.3149 8.62031 13.1482 10.0922 13.1435C11.3484 13.1435 12.6094 13.1482 13.8656 13.1388C14.4516 13.1341 15 13.27 15.4828 13.598C16.4016 14.2212 16.9641 15.0506 16.9547 16.2079C16.9406 17.042 16.95 17.8667 16.95 18.696ZM15.0234 18.8928C15.0234 17.9698 15.0234 17.0514 15.0234 16.1283C15.0234 15.6222 14.5172 15.074 14.0156 15.074C12.6703 15.0646 11.3297 15.0646 9.98438 15.074C9.51562 15.0787 8.97656 15.5988 8.97656 16.0533C8.97187 17.951 8.97656 19.8487 8.97188 21.7464C8.97188 21.901 9.0375 21.9526 9.17812 21.9573C9.93281 21.9854 10.6875 22.0416 11.4469 22.0416C12.5625 22.0369 13.6781 21.9854 14.7937 21.9619C14.9859 21.9573 15.0281 21.8823 15.0281 21.7042C15.0187 20.7671 15.0234 19.83 15.0234 18.8928Z"
							  fill="#000"
							/>
						  </g>
						  <defs>
							<clipPath id="clip0_296_508">
							  <rect
								width="24"
								height="23.9953"
								fill="white"
								transform="translate(0 0.00488281)"
							  />
							</clipPath>
						  </defs>
						</svg>