<svg
							xmlns="http://www.w3.org/2000/svg"
							width="24"
							height="24"
						
							viewBox="0 0 24 24"
						  >
							<path
							  d="M19 2H8C7.44772 2 7 2.44772 7 3V19C7 19.5523 7.44772 20 8 20H19C19.5523 20 20 19.5523 20 19V3C20 2.44772 19.5523 2 19 2ZM8 18V4H18V18H8ZM12 7C12.8284 7 13.5 7.67157 13.5 8.5C13.5 9.32843 12.8284 10 12 10C11.1716 10 10.5 9.32843 10.5 8.5C10.5 7.67157 11.1716 7 12 7ZM15 14C15 12.8954 13.1046 12 12 12C10.8954 12 9 12.8954 9 14V15H15V14Z"
							/>
							<path
							  d="M5 4H4C3.44772 4 3 4.44772 3 5V21C3 21.5523 3.44772 22 4 22H16C16.5523 22 17 21.5523 17 21V20H6C5.44772 20 5 19.5523 5 19V4Z"
							/>
						  </svg>