  <svg
          xmlns="http://www.w3.org/2000/svg"
          width="22"
          height="22"
          viewBox="0 0 24 24"
          fill="#000"
        >
          <path
            d="M8.29406 15.4149C8.81592 14.904 9.14062 14.1925 9.14062 13.4062C9.14062 11.8554 7.87894 10.5938 6.32812 10.5938C4.77731 10.5938 3.51562 11.8554 3.51562 13.4062C3.51562 14.1925 3.84033 14.904 4.36219 15.4149C3.42783 16.0475 2.8125 17.1173 2.8125 18.3281V19.7344C2.8125 20.1227 3.12731 20.4375 3.51562 20.4375H9.14062C9.52894 20.4375 9.84375 20.1227 9.84375 19.7344V18.3281C9.84375 17.1173 9.22842 16.0475 8.29406 15.4149ZM6.32812 12C7.10353 12 7.73438 12.6308 7.73438 13.4062C7.73438 14.1817 7.10353 14.8125 6.32812 14.8125C5.55272 14.8125 4.92188 14.1817 4.92188 13.4062C4.92188 12.6308 5.55272 12 6.32812 12ZM8.4375 19.0312H4.21875V18.3281C4.21875 17.165 5.16502 16.2188 6.32812 16.2188C7.49123 16.2188 8.4375 17.165 8.4375 18.3281V19.0312Z"
            fill="#000"
          />
          <path
            d="M16.2656 14.8125C16.654 14.8125 16.9688 14.4977 16.9688 14.1094C16.9688 13.721 16.654 13.4062 16.2656 13.4062C15.8773 13.4062 15.5625 13.721 15.5625 14.1094C15.5625 14.4977 15.8773 14.8125 16.2656 14.8125Z"
            fill="#000"
          />
          <path
            d="M19.0781 14.8125C19.4665 14.8125 19.7812 14.4977 19.7812 14.1094C19.7812 13.721 19.4665 13.4062 19.0781 13.4062C18.6898 13.4062 18.375 13.721 18.375 14.1094C18.375 14.4977 18.6898 14.8125 19.0781 14.8125Z"
            fill="#000"
          />
          <path
            d="M13.4531 14.8125C13.8415 14.8125 14.1562 14.4977 14.1562 14.1094C14.1562 13.721 13.8415 13.4062 13.4531 13.4062C13.0648 13.4062 12.75 13.721 12.75 14.1094C12.75 14.4977 13.0648 14.8125 13.4531 14.8125Z"
            fill="#000"
          />
          <path
            d="M19.0781 16.2188H13.4531C13.0648 16.2188 12.75 16.5336 12.75 16.9219C12.75 17.3102 13.0648 17.625 13.4531 17.625H19.0781C19.4664 17.625 19.7812 17.3102 19.7812 16.9219C19.7812 16.5336 19.4664 16.2188 19.0781 16.2188ZM19.0781 19.0313H13.4531C13.0648 19.0313 12.75 19.3461 12.75 19.7344C12.75 20.1227 13.0648 20.4375 13.4531 20.4375H19.0781C19.4664 20.4375 19.7812 20.1227 19.7812 19.7344C19.7812 19.3461 19.4664 19.0313 19.0781 19.0313ZM20.9815 4.47161C20.707 4.19697 20.2618 4.19697 19.9872 4.47156L17.6719 6.78691L16.7628 5.87781C16.4882 5.60322 16.043 5.60322 15.7684 5.87781C15.4938 6.15241 15.4938 6.59758 15.7684 6.87217L17.1747 8.27842C17.312 8.41577 17.4919 8.48439 17.6719 8.48439C17.8518 8.48439 18.0318 8.41577 18.169 8.27847L20.9815 5.46597C21.2561 5.19138 21.2561 4.74621 20.9815 4.47161Z"
            fill="#000"
          />
          <path
            d="M18.375 0.75C15.2734 0.75 12.75 3.27338 12.75 6.375H2.10938C0.946266 6.375 0 7.32127 0 8.48438V21.1406C0 22.3037 0.946266 23.25 2.10938 23.25H20.4844C21.6475 23.25 22.5938 22.3037 22.5938 21.1406V10.0912C23.4684 9.09942 24 7.79822 24 6.375C24 3.27338 21.4766 0.75 18.375 0.75ZM21.1875 21.1406C21.1875 21.5283 20.8721 21.8438 20.4844 21.8438H2.10938C1.72167 21.8438 1.40625 21.5283 1.40625 21.1406V8.48438C1.40625 8.09667 1.72167 7.78125 2.10938 7.78125H12.928C13.554 10.2046 15.7588 12 18.375 12C19.3989 12 20.3596 11.7249 21.1875 11.2449V21.1406ZM18.375 10.5938C16.0488 10.5938 14.1562 8.70122 14.1562 6.375C14.1562 4.04878 16.0488 2.15625 18.375 2.15625C20.7012 2.15625 22.5938 4.04878 22.5938 6.375C22.5938 8.70122 20.7012 10.5938 18.375 10.5938Z"
            fill="#000"
          />
        </svg>