 <svg
          xmlns="http://www.w3.org/2000/svg"
          width="24"
          height="25"
          viewBox="0 0 24 25"
          fill="none"
        >
          <g clip-path="url(#clip0_296_386)">
            <path
              d="M11.3969 7.66294C11.125 7.35825 10.9375 7.07232 10.9 6.702C10.8438 6.1395 11.0359 5.6895 11.4953 5.36607C11.6453 5.26294 11.6687 5.17388 11.6219 5.00044C11.4531 4.34419 11.2984 3.68325 11.1578 3.02232C11.0875 2.68482 11.1812 2.38482 11.4672 2.16919C11.7625 1.95357 12.0766 1.94419 12.3953 2.10825C12.9344 2.38013 13.4828 2.61919 14.1016 2.62388C14.7344 2.63325 15.2922 2.40357 15.8359 2.11763C16.3 1.86919 16.8672 2.02388 17.0359 2.49263C17.1109 2.69419 17.1203 2.94732 17.0781 3.15825C16.9562 3.777 16.8016 4.39107 16.6375 5.00044C16.5906 5.17388 16.6234 5.25826 16.7641 5.36607C17.4344 5.84888 17.575 6.70669 17.0922 7.37232C16.975 7.53638 17.0031 7.61607 17.1297 7.74263C17.7859 8.38951 18.4656 9.01294 19.075 9.702C20.0734 10.8364 20.8094 12.1254 21.0953 13.6348C21.2828 14.6192 21.2547 15.5895 20.95 16.5458C20.9312 16.6067 20.9172 16.6676 20.9031 16.7286C20.8984 16.7426 20.9078 16.7567 20.9125 16.8036C21.0906 16.8411 21.2781 16.8692 21.4609 16.9254C21.7375 17.0098 22.0094 17.0989 22.2766 17.2114C22.7922 17.4223 23.0641 17.8348 23.0734 18.3739C23.0828 18.8942 22.8203 19.2926 22.3562 19.5551C21.2781 20.1692 20.2 20.7879 19.1266 21.4067C17.8 22.1708 16.4828 22.9489 15.1422 23.6895C14.3359 24.1348 13.5203 24.5661 12.5922 24.7254C11.8984 24.8426 11.2281 24.7583 10.5719 24.4958C9.025 23.8676 7.47344 23.2442 5.92656 22.6161C5.83281 22.5786 5.73906 22.5551 5.59844 22.5083C5.59844 22.6583 5.60312 22.7708 5.59844 22.8879C5.58437 23.2958 5.33594 23.5442 4.93281 23.5442C3.85469 23.5442 2.77656 23.5442 1.69844 23.5442C1.28125 23.5442 1.04687 23.3239 1.00469 22.9114C0.999999 22.8504 1 22.7848 1 22.7239C1 20.1458 1 17.5676 1 14.9895C1 14.8676 1.01406 14.7364 1.04687 14.6192C1.12187 14.352 1.30469 14.2114 1.58125 14.2114C2.72031 14.2067 3.86406 14.2067 5.00313 14.2114C5.32656 14.2114 5.54219 14.4176 5.58906 14.7411C5.59375 14.7879 5.59375 14.8348 5.59375 14.8817C5.60312 15.4348 5.60313 15.4348 6.16563 15.4348C6.4375 15.4348 6.71406 15.4254 6.98594 15.4395C7.18281 15.4489 7.24375 15.3786 7.23437 15.1864C7.17812 14.2864 7.30938 13.4145 7.61875 12.5661C8.05469 11.3801 8.73437 10.3489 9.58281 9.43013C10.0187 8.96138 10.4875 8.52544 10.9422 8.07544C11.0969 7.93013 11.2375 7.80825 11.3969 7.66294ZM16.0609 18.3926C16.1078 18.3833 16.1453 18.3833 16.1828 18.3692C16.5437 18.2004 16.9 18.0223 17.2609 17.8583C17.9266 17.5536 18.5922 17.2395 19.2719 16.9723C19.5063 16.8786 19.6422 16.7614 19.7359 16.5364C20.1906 15.4301 20.1531 14.3098 19.8016 13.1895C19.4266 11.9848 18.7281 10.9723 17.875 10.0676C17.2187 9.37388 16.5297 8.71763 15.8453 8.05669C15.7891 8.00044 15.6813 7.97701 15.5922 7.97232C14.6875 7.96763 13.7781 7.96294 12.8734 7.97701C12.7656 7.97701 12.6344 8.04263 12.5547 8.11763C12.1328 8.51138 11.725 8.92388 11.3078 9.32232C10.3656 10.2223 9.52188 11.202 8.96406 12.3973C8.5375 13.3067 8.30312 14.2583 8.41094 15.2801C8.43437 15.4958 8.54688 15.5286 8.70625 15.5614C9.76094 15.7723 10.6703 16.2551 11.4672 16.9723C11.5562 17.052 11.6969 17.1083 11.8141 17.1129C12.5969 17.127 13.375 17.1176 14.1578 17.1176C15.0203 17.1176 15.6625 17.4739 16 18.2989C16.0094 18.327 16.0375 18.3551 16.0609 18.3926ZM11.8187 20.4504C10.9281 20.4504 10.0375 20.4551 9.14687 20.4458C9.01094 20.4458 8.86094 20.4223 8.74375 20.3614C8.52344 20.2442 8.425 19.9583 8.49062 19.7333C8.57031 19.4661 8.78594 19.3114 9.09531 19.3114C10.8062 19.3114 12.5172 19.3114 14.2281 19.3114C14.3266 19.3114 14.4344 19.3067 14.5281 19.2879C14.7625 19.2364 14.8984 19.0723 14.9172 18.8473C14.9359 18.6364 14.8187 18.4629 14.6219 18.3833C14.4906 18.327 14.3359 18.2942 14.1953 18.2942C13.3656 18.2848 12.5406 18.2708 11.7109 18.2989C11.2844 18.3129 10.9844 18.177 10.6844 17.877C9.97187 17.1551 9.09063 16.7239 8.07344 16.6489C7.35156 16.5973 6.625 16.6208 5.89844 16.5973C5.66875 16.5879 5.60781 16.6676 5.60781 16.8926C5.61719 18.2614 5.61719 19.6254 5.60781 20.9942C5.60781 21.1958 5.68281 21.2801 5.85625 21.3504C7.58125 22.0348 9.30625 22.7286 11.0312 23.4176C11.6031 23.6473 12.1891 23.7083 12.7656 23.4879C13.3328 23.2723 13.9047 23.0473 14.4344 22.752C16.8625 21.3786 19.2719 19.9817 21.6859 18.5848C21.7703 18.5333 21.8312 18.4395 21.9062 18.3692C21.8219 18.3083 21.7422 18.2239 21.6484 18.1864C20.7766 17.8442 19.9094 17.8536 19.0609 18.2614C17.9688 18.7817 16.8812 19.3114 15.7937 19.8364C15.7234 19.8692 15.6625 19.9161 15.6062 19.9723C15.2641 20.3004 14.8562 20.4645 14.3781 20.4551C13.525 20.4458 12.6719 20.4504 11.8187 20.4504ZM4.44063 18.8473C4.44063 17.7692 4.43594 16.6911 4.44531 15.6129C4.44531 15.3926 4.37031 15.3317 4.16406 15.3317C3.60156 15.3411 3.03906 15.3411 2.47656 15.3317C2.26562 15.327 2.18594 15.3973 2.19063 15.6176C2.2 16.2879 2.19531 16.9629 2.19531 17.6333C2.19531 19.1239 2.2 20.6192 2.19063 22.1098C2.19063 22.3067 2.23281 22.377 2.44844 22.3723C3.025 22.3536 3.60625 22.3583 4.18281 22.3723C4.38906 22.377 4.44531 22.3114 4.44531 22.1098C4.43594 21.0176 4.44063 19.9301 4.44063 18.8473ZM12.4469 3.42075C12.4281 3.44888 12.4047 3.47701 12.3859 3.50513C12.5359 3.99732 12.6766 4.48951 12.8359 4.97232C12.8547 5.03326 12.9906 5.09419 13.0703 5.09419C13.7734 5.10357 14.4766 5.09419 15.175 5.10357C15.3344 5.10357 15.4187 5.052 15.4609 4.89732C15.5687 4.50826 15.6859 4.11919 15.7937 3.73013C15.8172 3.64576 15.8172 3.552 15.8406 3.39263C14.6875 3.93638 13.5672 3.90825 12.4469 3.42075ZM14.1484 6.28013C13.5531 6.28013 12.9625 6.28482 12.3672 6.28013C12.1797 6.28013 12.0484 6.34107 12.0484 6.53325C12.0484 6.72075 12.175 6.80044 12.3625 6.80044C13.5391 6.79576 14.7203 6.80044 15.8969 6.80044C16.075 6.80044 16.2063 6.75357 16.2063 6.54263C16.2063 6.33169 16.0844 6.28013 15.9016 6.28482C15.3203 6.28013 14.7344 6.28013 14.1484 6.28013Z"
              fill="white"
            />
            <path
              d="M12.4937 11.7042C12.4937 11.3058 12.4609 10.9073 12.714 10.5511C12.9203 10.2651 13.1781 10.0636 13.5203 9.98856C13.689 9.95106 13.764 9.8995 13.7874 9.712C13.8437 9.23856 14.1999 8.9995 14.5843 9.14481C14.8468 9.24325 14.9828 9.4495 14.9828 9.72138C14.9828 9.89481 15.0578 9.94638 15.2124 9.97919C15.8265 10.1151 16.2671 10.6401 16.3 11.2542C16.314 11.5495 16.089 11.8261 15.7796 11.887C15.5125 11.9386 15.1937 11.7651 15.1374 11.4651C15.0812 11.1511 14.9078 11.1323 14.6593 11.1464C14.4109 11.1604 14.1578 11.1511 13.9093 11.1464C13.75 11.1417 13.6796 11.2167 13.6796 11.3714C13.6796 11.5729 13.6843 11.7792 13.6796 11.9808C13.6749 12.1589 13.7546 12.2292 13.9328 12.2292C14.3218 12.2292 14.7156 12.2104 15.1 12.2667C15.8031 12.3698 16.2156 12.8011 16.2859 13.5136C16.3234 13.8839 16.3093 14.2636 16.2531 14.6339C16.1687 15.1964 15.8078 15.5479 15.2593 15.6933C15.0812 15.7401 14.9734 15.7823 14.9781 16.0073C14.9828 16.3073 14.7203 16.5511 14.4296 16.5839C14.1578 16.612 13.8953 16.4151 13.8109 16.1151C13.8015 16.0776 13.7828 16.0401 13.7874 16.0026C13.8062 15.7917 13.689 15.7354 13.5015 15.6933C12.9156 15.5667 12.4937 15.0183 12.4937 14.4136C12.4937 14.0667 12.7046 13.8229 13.0328 13.7854C13.3046 13.7573 13.614 13.9729 13.6609 14.2776C13.6937 14.4792 13.7781 14.5354 13.9703 14.5308C14.2656 14.5214 14.5656 14.5214 14.8609 14.5308C15.0203 14.5354 15.0906 14.4745 15.0859 14.3104C15.0812 14.1229 15.0718 13.9354 15.0859 13.7479C15.0999 13.5276 15.0203 13.4433 14.7906 13.4433C14.3921 13.4479 13.989 13.4667 13.5999 13.4058C12.9203 13.2979 12.5125 12.7823 12.4937 12.0933C12.4937 11.9714 12.4937 11.8354 12.4937 11.7042Z"
              fill="white"
            />
          </g>
          <defs>
            <clipPath id="clip0_296_386">
              <rect
                width="24"
                height="24"
                fill="white"
                transform="translate(0 0.995117)"
              />
            </clipPath>
          </defs>
        </svg>